<mxfile host="65bd71144e">
    <diagram id="FbGefB45DL_52clLTNWh" name="Page-1">
        <mxGraphModel dx="1924" dy="680" grid="1" gridSize="10" guides="1" tooltips="1" connect="0" arrows="1" fold="1" page="1" pageScale="1" pageWidth="827" pageHeight="1169" math="0" shadow="0">
            <root>
                <mxCell id="0"/>
                <mxCell id="1" parent="0"/>
                <mxCell id="70" style="edgeStyle=none;shape=link;html=1;exitX=0.5;exitY=0;exitDx=0;exitDy=0;" parent="1" source="69" edge="1">
                    <mxGeometry relative="1" as="geometry">
                        <mxPoint x="-110" y="460" as="targetPoint"/>
                        <Array as="points"/>
                    </mxGeometry>
                </mxCell>
                <mxCell id="71" style="edgeStyle=none;shape=link;html=1;entryX=0.5;entryY=0;entryDx=0;entryDy=0;exitX=0.557;exitY=1.007;exitDx=0;exitDy=0;exitPerimeter=0;" parent="1" target="54" edge="1" source="9">
                    <mxGeometry relative="1" as="geometry">
                        <mxPoint x="-60" y="440" as="sourcePoint"/>
                        <mxPoint x="60" y="400" as="targetPoint"/>
                    </mxGeometry>
                </mxCell>
                <mxCell id="85" style="edgeStyle=none;shape=link;html=1;exitX=0.5;exitY=0;exitDx=0;exitDy=0;" parent="1" source="84" edge="1">
                    <mxGeometry relative="1" as="geometry">
                        <mxPoint x="112" y="310" as="targetPoint"/>
                    </mxGeometry>
                </mxCell>
                <mxCell id="54" value="belong" style="shape=rhombus;perimeter=rhombusPerimeter;whiteSpace=wrap;html=1;align=center;" parent="1" vertex="1">
                    <mxGeometry x="-100" y="560" width="120" height="60" as="geometry"/>
                </mxCell>
                <mxCell id="62" style="edgeStyle=none;shape=link;html=1;exitX=1;exitY=1;exitDx=0;exitDy=0;" parent="1" source="54" edge="1">
                    <mxGeometry relative="1" as="geometry">
                        <mxPoint x="-70.37" y="627" as="sourcePoint"/>
                        <mxPoint x="30" y="697" as="targetPoint"/>
                    </mxGeometry>
                </mxCell>
                <mxCell id="189" style="edgeStyle=none;shape=link;html=1;exitX=0.5;exitY=0;exitDx=0;exitDy=0;entryX=0;entryY=1;entryDx=0;entryDy=0;" parent="1" source="17" target="89" edge="1">
                    <mxGeometry relative="1" as="geometry"/>
                </mxCell>
                <mxCell id="17" value="parcel" style="html=1;dashed=0;whitespace=wrap;" parent="1" vertex="1">
                    <mxGeometry x="-450" y="565" width="100" height="50" as="geometry"/>
                </mxCell>
                <mxCell id="5" value="locate" style="shape=rhombus;perimeter=rhombusPerimeter;whiteSpace=wrap;html=1;align=center;" parent="1" vertex="1">
                    <mxGeometry x="172" y="697" width="120" height="60" as="geometry"/>
                </mxCell>
                <mxCell id="202" value="" style="edgeStyle=none;shape=link;html=1;entryX=0;entryY=1;entryDx=0;entryDy=0;" parent="1" source="19" target="84" edge="1">
                    <mxGeometry relative="1" as="geometry"/>
                </mxCell>
                <mxCell id="19" value="courier_station" style="html=1;dashed=0;whitespace=wrap;" parent="1" vertex="1">
                    <mxGeometry x="-18" y="702" width="100" height="50" as="geometry"/>
                </mxCell>
                <mxCell id="20" value="address" style="html=1;dashed=0;whitespace=wrap;" parent="1" vertex="1">
                    <mxGeometry x="360.5" y="703" width="100" height="50" as="geometry"/>
                </mxCell>
                <mxCell id="28" value="" style="shape=link;html=1;" parent="1" edge="1">
                    <mxGeometry width="100" relative="1" as="geometry">
                        <mxPoint x="292" y="726.8" as="sourcePoint"/>
                        <mxPoint x="350" y="727" as="targetPoint"/>
                    </mxGeometry>
                </mxCell>
                <mxCell id="30" value="" style="endArrow=classic;html=1;" parent="1" edge="1">
                    <mxGeometry width="50" height="50" relative="1" as="geometry">
                        <mxPoint x="350" y="726.7199999999999" as="sourcePoint"/>
                        <mxPoint x="360" y="726.7199999999999" as="targetPoint"/>
                        <Array as="points">
                            <mxPoint x="360" y="726.7199999999999"/>
                        </Array>
                    </mxGeometry>
                </mxCell>
                <mxCell id="21" value="" style="verticalLabelPosition=bottom;shadow=0;dashed=0;align=center;html=1;verticalAlign=top;shape=mxgraph.electrical.transmission.2_line_bus;direction=west;" parent="1" vertex="1">
                    <mxGeometry x="92" y="725.13" width="80" height="3.75" as="geometry"/>
                </mxCell>
                <mxCell id="22" value="" style="endArrow=classic;html=1;" parent="1" edge="1">
                    <mxGeometry width="50" height="50" relative="1" as="geometry">
                        <mxPoint x="92" y="726.8" as="sourcePoint"/>
                        <mxPoint x="82" y="726.8" as="targetPoint"/>
                    </mxGeometry>
                </mxCell>
                <mxCell id="27" value="" style="endArrow=classic;html=1;" parent="1" edge="1">
                    <mxGeometry width="50" height="50" relative="1" as="geometry">
                        <mxPoint x="102" y="736.8" as="sourcePoint"/>
                        <mxPoint x="102" y="737" as="targetPoint"/>
                    </mxGeometry>
                </mxCell>
                <mxCell id="65" value="" style="endArrow=classic;html=1;entryX=0.523;entryY=-0.01;entryDx=0;entryDy=0;entryPerimeter=0;" parent="1" target="19" edge="1">
                    <mxGeometry width="50" height="50" relative="1" as="geometry">
                        <mxPoint x="30" y="697" as="sourcePoint"/>
                        <mxPoint x="30" y="702" as="targetPoint"/>
                        <Array as="points"/>
                    </mxGeometry>
                </mxCell>
                <mxCell id="75" style="edgeStyle=none;shape=link;html=1;exitX=0;exitY=0.5;exitDx=0;exitDy=0;entryX=1;entryY=0.5;entryDx=0;entryDy=0;" parent="1" source="69" target="17" edge="1">
                    <mxGeometry relative="1" as="geometry"/>
                </mxCell>
                <mxCell id="69" value="manage" style="shape=rhombus;perimeter=rhombusPerimeter;whiteSpace=wrap;html=1;align=center;" parent="1" vertex="1">
                    <mxGeometry x="-230" y="560" width="120" height="60" as="geometry"/>
                </mxCell>
                <mxCell id="84" value="control" style="shape=rhombus;perimeter=rhombusPerimeter;whiteSpace=wrap;html=1;align=center;" parent="1" vertex="1">
                    <mxGeometry x="52" y="560" width="120" height="60" as="geometry"/>
                </mxCell>
                <mxCell id="93" style="edgeStyle=none;html=1;exitX=1;exitY=0;exitDx=0;exitDy=0;entryX=0.5;entryY=1;entryDx=0;entryDy=0;" parent="1" source="88" target="10" edge="1">
                    <mxGeometry relative="1" as="geometry"/>
                </mxCell>
                <mxCell id="95" style="edgeStyle=none;shape=link;html=1;exitX=1;exitY=1;exitDx=0;exitDy=0;entryX=0.5;entryY=0;entryDx=0;entryDy=0;" parent="1" source="88" target="17" edge="1">
                    <mxGeometry relative="1" as="geometry"/>
                </mxCell>
                <mxCell id="88" value="send" style="shape=rhombus;perimeter=rhombusPerimeter;whiteSpace=wrap;html=1;align=center;" parent="1" vertex="1">
                    <mxGeometry x="-550" y="420" width="120" height="60" as="geometry"/>
                </mxCell>
                <mxCell id="94" style="edgeStyle=none;html=1;exitX=0;exitY=0;exitDx=0;exitDy=0;entryX=0.5;entryY=1;entryDx=0;entryDy=0;" parent="1" source="89" target="10" edge="1">
                    <mxGeometry relative="1" as="geometry"/>
                </mxCell>
                <mxCell id="89" value="pick" style="shape=rhombus;perimeter=rhombusPerimeter;whiteSpace=wrap;html=1;align=center;" parent="1" vertex="1">
                    <mxGeometry x="-370" y="420" width="120" height="60" as="geometry"/>
                </mxCell>
                <mxCell id="76" value="" style="endArrow=classic;html=1;" parent="1" edge="1">
                    <mxGeometry width="50" height="50" relative="1" as="geometry">
                        <mxPoint x="-113" y="464" as="sourcePoint"/>
                        <mxPoint x="-103" y="454" as="targetPoint"/>
                        <Array as="points">
                            <mxPoint x="-103" y="454"/>
                        </Array>
                    </mxGeometry>
                </mxCell>
                <mxCell id="4" value="user" style="html=1;dashed=0;whitespace=wrap;" parent="1" vertex="1">
                    <mxGeometry x="-120" y="80" width="100" height="50" as="geometry"/>
                </mxCell>
                <mxCell id="8" value="ISA" style="triangle;whiteSpace=wrap;html=1;direction=south;" parent="1" vertex="1">
                    <mxGeometry x="-113" y="180" width="80" height="60" as="geometry"/>
                </mxCell>
                <mxCell id="9" value="delivery_manager&amp;nbsp;" style="html=1;dashed=0;whitespace=wrap;" parent="1" vertex="1">
                    <mxGeometry x="-140" y="400" width="100" height="50" as="geometry"/>
                </mxCell>
                <mxCell id="10" value="customer" style="html=1;dashed=0;whitespace=wrap;" parent="1" vertex="1">
                    <mxGeometry x="-413" y="290" width="100" height="50" as="geometry"/>
                </mxCell>
                <mxCell id="11" value="administrator" style="html=1;dashed=0;whitespace=wrap;" parent="1" vertex="1">
                    <mxGeometry x="62" y="256" width="100" height="50" as="geometry"/>
                </mxCell>
                <mxCell id="14" value="" style="endArrow=none;html=1;entryX=0;entryY=0.5;entryDx=0;entryDy=0;" parent="1" target="11" edge="1">
                    <mxGeometry width="50" height="50" relative="1" as="geometry">
                        <mxPoint x="-70" y="260" as="sourcePoint"/>
                        <mxPoint x="90" y="250" as="targetPoint"/>
                    </mxGeometry>
                </mxCell>
                <mxCell id="16" value="" style="shape=link;html=1;exitX=0;exitY=0.5;exitDx=0;exitDy=0;entryX=0.5;entryY=1;entryDx=0;entryDy=0;" parent="1" target="4" edge="1">
                    <mxGeometry width="100" relative="1" as="geometry">
                        <mxPoint x="-70" y="180" as="sourcePoint"/>
                        <mxPoint x="-240" y="60" as="targetPoint"/>
                    </mxGeometry>
                </mxCell>
                <mxCell id="181" value="" style="endArrow=none;html=1;exitX=1;exitY=0.5;exitDx=0;exitDy=0;entryX=0.517;entryY=-0.033;entryDx=0;entryDy=0;entryPerimeter=0;" parent="1" source="8" edge="1" target="9">
                    <mxGeometry width="50" height="50" relative="1" as="geometry">
                        <mxPoint x="-230" y="235" as="sourcePoint"/>
                        <mxPoint x="-73" y="340" as="targetPoint"/>
                    </mxGeometry>
                </mxCell>
                <mxCell id="184" value="" style="endArrow=none;html=1;" parent="1" source="10" edge="1">
                    <mxGeometry width="50" height="50" relative="1" as="geometry">
                        <mxPoint x="-312" y="270" as="sourcePoint"/>
                        <mxPoint x="-70" y="260" as="targetPoint"/>
                    </mxGeometry>
                </mxCell>
                <mxCell id="YqV0iKdWkAeTf8LVqFh--184" value="" style="endArrow=classic;html=1;rounded=0;" parent="1" edge="1">
                    <mxGeometry width="50" height="50" relative="1" as="geometry">
                        <mxPoint x="111.87" y="306" as="sourcePoint"/>
                        <mxPoint x="111.87" y="306" as="targetPoint"/>
                        <Array as="points">
                            <mxPoint x="111.87" y="306"/>
                            <mxPoint x="111.87" y="316"/>
                        </Array>
                    </mxGeometry>
                </mxCell>
                <mxCell id="190" value="contact" style="html=1;dashed=0;whitespace=wrap;" parent="1" vertex="1">
                    <mxGeometry x="300" y="93" width="100" height="50" as="geometry"/>
                </mxCell>
                <mxCell id="205" style="edgeStyle=none;shape=link;html=1;entryX=-0.02;entryY=0.6;entryDx=0;entryDy=0;exitX=1;exitY=0.544;exitDx=0;exitDy=0;exitPerimeter=0;entryPerimeter=0;" parent="1" target="190" edge="1" source="211">
                    <mxGeometry relative="1" as="geometry">
                        <mxPoint x="512.5" y="150" as="sourcePoint"/>
                        <mxPoint x="792" y="545" as="targetPoint"/>
                    </mxGeometry>
                </mxCell>
                <mxCell id="208" style="edgeStyle=none;shape=link;html=1;entryX=-0.005;entryY=0.534;entryDx=0;entryDy=0;entryPerimeter=0;" parent="1" edge="1" target="211">
                    <mxGeometry relative="1" as="geometry">
                        <mxPoint x="-10" y="120" as="sourcePoint"/>
                        <mxPoint x="360" y="120" as="targetPoint"/>
                    </mxGeometry>
                </mxCell>
                <mxCell id="209" value="" style="endArrow=classic;html=1;" parent="1" edge="1">
                    <mxGeometry width="50" height="50" relative="1" as="geometry">
                        <mxPoint x="0.0799999999999983" y="119.68" as="sourcePoint"/>
                        <mxPoint x="-18.000000000000014" y="119.6799999999999" as="targetPoint"/>
                        <Array as="points"/>
                    </mxGeometry>
                </mxCell>
                <mxCell id="211" value="touch" style="shape=rhombus;perimeter=rhombusPerimeter;whiteSpace=wrap;html=1;align=center;" parent="1" vertex="1">
                    <mxGeometry x="92" y="90" width="120" height="60" as="geometry"/>
                </mxCell>
                <mxCell id="212" value="transfer" style="shape=rhombus;perimeter=rhombusPerimeter;whiteSpace=wrap;html=1;align=center;" vertex="1" parent="1">
                    <mxGeometry x="352" y="840" width="120" height="60" as="geometry"/>
                </mxCell>
                <mxCell id="213" value="logistics_company" style="html=1;dashed=0;whitespace=wrap;" vertex="1" parent="1">
                    <mxGeometry x="-18" y="845" width="100" height="50" as="geometry"/>
                </mxCell>
                <mxCell id="214" style="edgeStyle=none;shape=link;html=1;exitX=0;exitY=0.5;exitDx=0;exitDy=0;entryX=1;entryY=0.5;entryDx=0;entryDy=0;" edge="1" parent="1" source="212" target="213">
                    <mxGeometry relative="1" as="geometry"/>
                </mxCell>
                <mxCell id="215" value="" style="endArrow=classic;html=1;" edge="1" parent="1">
                    <mxGeometry width="50" height="50" relative="1" as="geometry">
                        <mxPoint x="90" y="899.8" as="sourcePoint"/>
                        <mxPoint x="90" y="900" as="targetPoint"/>
                    </mxGeometry>
                </mxCell>
                <mxCell id="216" style="edgeStyle=none;shape=link;html=1;exitX=1;exitY=0.5;exitDx=0;exitDy=0;entryX=0;entryY=0.5;entryDx=0;entryDy=0;" edge="1" parent="1" source="217" target="213">
                    <mxGeometry relative="1" as="geometry"/>
                </mxCell>
                <mxCell id="217" value="carry" style="shape=rhombus;perimeter=rhombusPerimeter;whiteSpace=wrap;html=1;align=center;" vertex="1" parent="1">
                    <mxGeometry x="-460" y="840" width="120" height="60" as="geometry"/>
                </mxCell>
                <mxCell id="218" value="&lt;u&gt;lcID&lt;/u&gt;" style="ellipse;whiteSpace=wrap;html=1;align=center;" vertex="1" parent="1">
                    <mxGeometry x="-150" y="930" width="110" height="40" as="geometry"/>
                </mxCell>
                <mxCell id="219" value="lcName" style="ellipse;whiteSpace=wrap;html=1;align=center;" vertex="1" parent="1">
                    <mxGeometry x="-23" y="940" width="110" height="40" as="geometry"/>
                </mxCell>
                <mxCell id="220" value="lcContact" style="ellipse;whiteSpace=wrap;html=1;align=center;" vertex="1" parent="1">
                    <mxGeometry x="120" y="940" width="110" height="40" as="geometry"/>
                </mxCell>
                <mxCell id="221" value="" style="endArrow=none;html=1;entryX=0;entryY=1;entryDx=0;entryDy=0;" edge="1" parent="1" source="218" target="213">
                    <mxGeometry width="50" height="50" relative="1" as="geometry">
                        <mxPoint x="-67.5" y="798" as="sourcePoint"/>
                        <mxPoint x="-72.5" y="740" as="targetPoint"/>
                    </mxGeometry>
                </mxCell>
                <mxCell id="222" value="" style="endArrow=none;html=1;entryX=0.5;entryY=1;entryDx=0;entryDy=0;exitX=0.5;exitY=0;exitDx=0;exitDy=0;" edge="1" parent="1" source="219" target="213">
                    <mxGeometry width="50" height="50" relative="1" as="geometry">
                        <mxPoint x="188.00219452802025" y="807.1859363987855" as="sourcePoint"/>
                        <mxPoint x="240" y="770" as="targetPoint"/>
                    </mxGeometry>
                </mxCell>
                <mxCell id="223" value="" style="endArrow=none;html=1;entryX=0;entryY=0;entryDx=0;entryDy=0;exitX=1;exitY=1;exitDx=0;exitDy=0;" edge="1" parent="1" source="213" target="220">
                    <mxGeometry width="50" height="50" relative="1" as="geometry">
                        <mxPoint x="92.00219452802025" y="917.1859363987855" as="sourcePoint"/>
                        <mxPoint x="144" y="880" as="targetPoint"/>
                    </mxGeometry>
                </mxCell>
                <mxCell id="224" style="edgeStyle=none;shape=link;html=1;entryX=0.5;entryY=1;entryDx=0;entryDy=0;" edge="1" parent="1">
                    <mxGeometry relative="1" as="geometry">
                        <mxPoint x="-400" y="840" as="sourcePoint"/>
                        <mxPoint x="-400" y="615" as="targetPoint"/>
                    </mxGeometry>
                </mxCell>
                <mxCell id="225" style="edgeStyle=none;shape=link;html=1;entryX=0.51;entryY=0.986;entryDx=0;entryDy=0;entryPerimeter=0;" edge="1" parent="1" source="212" target="20">
                    <mxGeometry relative="1" as="geometry">
                        <mxPoint x="432" y="890" as="sourcePoint"/>
                        <mxPoint x="432" y="752" as="targetPoint"/>
                    </mxGeometry>
                </mxCell>
            </root>
        </mxGraphModel>
    </diagram>
</mxfile>